<svg width="707" height="70" viewBox="0 0 707 70" fill="none" xmlns="http://www.w3.org/2000/svg">
<path d="M31.2207 28.7227H35.4688C37.3112 28.7227 38.7012 28.9896 39.6387 29.5234C40.5762 30.0573 41.0449 30.9785 41.0449 32.2871C41.0449 32.834 40.9473 33.3288 40.752 33.7715C40.5632 34.2077 40.2865 34.569 39.9219 34.8555C39.5573 35.1354 39.1081 35.3242 38.5742 35.4219V35.5195C39.1276 35.6172 39.6191 35.7897 40.0488 36.0371C40.485 36.2845 40.8268 36.6393 41.0742 37.1016C41.3281 37.5638 41.4551 38.1628 41.4551 38.8984C41.4551 39.7708 41.2467 40.513 40.8301 41.125C40.4199 41.737 39.8307 42.2025 39.0625 42.5215C38.3008 42.8405 37.3958 43 36.3477 43H31.2207V28.7227ZM33.5645 34.6113H35.8105C36.8717 34.6113 37.6074 34.4388 38.0176 34.0938C38.4277 33.7487 38.6328 33.2441 38.6328 32.5801C38.6328 31.903 38.3887 31.4147 37.9004 31.1152C37.4186 30.8158 36.6504 30.666 35.5957 30.666H33.5645V34.6113ZM33.5645 36.5059V41.0371H36.0352C37.1289 41.0371 37.8971 40.8255 38.3398 40.4023C38.7826 39.9792 39.0039 39.4062 39.0039 38.6836C39.0039 38.2409 38.903 37.8568 38.7012 37.5312C38.5059 37.2057 38.1836 36.9551 37.7344 36.7793C37.2852 36.597 36.6797 36.5059 35.918 36.5059H33.5645ZM48.418 28.7227C49.6484 28.7227 50.6641 28.8724 51.4648 29.1719C52.2721 29.4714 52.8711 29.9271 53.2617 30.5391C53.6589 31.151 53.8574 31.929 53.8574 32.873C53.8574 33.5762 53.7272 34.1751 53.4668 34.6699C53.2064 35.1647 52.8646 35.5749 52.4414 35.9004C52.0182 36.2259 51.5658 36.4863 51.084 36.6816L55.1367 43H52.4902L49.043 37.2773H46.748V43H44.4043V28.7227H48.418ZM48.2617 30.6758H46.748V35.3438H48.3691C49.4564 35.3438 50.2441 35.1419 50.7324 34.7383C51.2272 34.3346 51.4746 33.7389 51.4746 32.9512C51.4746 32.1243 51.2109 31.5384 50.6836 31.1934C50.1628 30.8483 49.3555 30.6758 48.2617 30.6758ZM69.8535 35.8418C69.8535 36.9421 69.7135 37.9447 69.4336 38.8496C69.1602 39.748 68.7467 40.5228 68.1934 41.1738C67.64 41.8184 66.9466 42.3164 66.1133 42.668C65.2799 43.0195 64.3034 43.1953 63.1836 43.1953C62.0443 43.1953 61.0547 43.0195 60.2148 42.668C59.3815 42.3164 58.6882 41.8151 58.1348 41.1641C57.5879 40.513 57.1777 39.735 56.9043 38.8301C56.6309 37.9251 56.4941 36.9225 56.4941 35.8223C56.4941 34.3509 56.735 33.0684 57.2168 31.9746C57.7051 30.8743 58.444 30.0215 59.4336 29.416C60.4297 28.804 61.6862 28.498 63.2031 28.498C64.6875 28.498 65.9212 28.8008 66.9043 29.4062C67.8874 30.0117 68.623 30.8646 69.1113 31.9648C69.6061 33.0586 69.8535 34.3509 69.8535 35.8418ZM58.9551 35.8418C58.9551 36.9421 59.1048 37.8958 59.4043 38.7031C59.7038 39.5039 60.1628 40.1224 60.7812 40.5586C61.4062 40.9883 62.207 41.2031 63.1836 41.2031C64.1667 41.2031 64.9674 40.9883 65.5859 40.5586C66.2044 40.1224 66.6602 39.5039 66.9531 38.7031C67.2461 37.8958 67.3926 36.9421 67.3926 35.8418C67.3926 34.1686 67.0573 32.86 66.3867 31.916C65.7227 30.9655 64.6615 30.4902 63.2031 30.4902C62.2266 30.4902 61.4225 30.7051 60.791 31.1348C60.166 31.5645 59.7038 32.1797 59.4043 32.9805C59.1048 33.7747 58.9551 34.7285 58.9551 35.8418ZM89.8047 28.7227L86.0742 43H83.5156L81.1328 34.4453C81.0742 34.237 81.0091 33.9896 80.9375 33.7031C80.8659 33.4167 80.7943 33.1237 80.7227 32.8242C80.6576 32.5247 80.599 32.2513 80.5469 32.0039C80.5013 31.75 80.4688 31.5547 80.4492 31.418C80.4362 31.5547 80.4069 31.7467 80.3613 31.9941C80.3158 32.2415 80.2604 32.515 80.1953 32.8145C80.1367 33.1074 80.0716 33.4004 80 33.6934C79.9284 33.9798 79.8633 34.2337 79.8047 34.4551L77.4609 43H74.9121L71.1914 28.7227H73.5449L75.6055 37.0918C75.6706 37.3587 75.7357 37.6484 75.8008 37.9609C75.8724 38.2669 75.9375 38.5762 75.9961 38.8887C76.0612 39.2012 76.1198 39.5072 76.1719 39.8066C76.224 40.0996 76.2663 40.3665 76.2988 40.6074C76.3314 40.36 76.3737 40.0866 76.4258 39.7871C76.4779 39.4811 76.5332 39.1719 76.5918 38.8594C76.6569 38.5404 76.722 38.2344 76.7871 37.9414C76.8587 37.6484 76.9303 37.3848 77.002 37.1504L79.3262 28.7227H81.6113L83.9844 37.1797C84.056 37.4206 84.1243 37.6908 84.1895 37.9902C84.2611 38.2897 84.3294 38.5957 84.3945 38.9082C84.4596 39.2207 84.5182 39.5234 84.5703 39.8164C84.6224 40.1094 84.6647 40.373 84.6973 40.6074C84.7428 40.2884 84.8014 39.9238 84.873 39.5137C84.9447 39.1035 85.026 38.6868 85.1172 38.2637C85.2083 37.8405 85.2995 37.4499 85.3906 37.0918L87.4414 28.7227H89.8047ZM100.068 39.1133C100.068 39.9596 99.86 40.6888 99.4434 41.3008C99.0332 41.9128 98.4408 42.3815 97.666 42.707C96.8978 43.0326 95.9798 43.1953 94.9121 43.1953C94.3913 43.1953 93.8932 43.166 93.418 43.1074C92.9427 43.0488 92.4935 42.9642 92.0703 42.8535C91.6536 42.7363 91.2728 42.5964 90.9277 42.4336V40.2266C91.5072 40.4805 92.1549 40.7116 92.8711 40.9199C93.5872 41.1217 94.3164 41.2227 95.0586 41.2227C95.6641 41.2227 96.1654 41.1445 96.5625 40.9883C96.9661 40.8255 97.2656 40.5977 97.4609 40.3047C97.6562 40.0052 97.7539 39.6569 97.7539 39.2598C97.7539 38.8366 97.64 38.4785 97.4121 38.1855C97.1842 37.8926 96.8392 37.6257 96.377 37.3848C95.9212 37.1374 95.3483 36.8737 94.6582 36.5938C94.1895 36.4049 93.7402 36.1901 93.3105 35.9492C92.8874 35.7083 92.5098 35.4251 92.1777 35.0996C91.8457 34.7741 91.582 34.39 91.3867 33.9473C91.1979 33.498 91.1035 32.9707 91.1035 32.3652C91.1035 31.5579 91.2956 30.8678 91.6797 30.2949C92.0703 29.722 92.6172 29.2826 93.3203 28.9766C94.0299 28.6706 94.8568 28.5176 95.8008 28.5176C96.5495 28.5176 97.2526 28.5957 97.9102 28.752C98.5742 28.9082 99.2253 29.1296 99.8633 29.416L99.1211 31.3008C98.5352 31.0599 97.9655 30.8678 97.4121 30.7246C96.8652 30.5814 96.3053 30.5098 95.7324 30.5098C95.2376 30.5098 94.8177 30.5846 94.4727 30.7344C94.1276 30.8841 93.8639 31.0957 93.6816 31.3691C93.5059 31.6361 93.418 31.9551 93.418 32.3262C93.418 32.7428 93.5189 33.0944 93.7207 33.3809C93.929 33.6608 94.248 33.918 94.6777 34.1523C95.1139 34.3867 95.6738 34.6471 96.3574 34.9336C97.1452 35.2591 97.8125 35.6009 98.3594 35.959C98.9128 36.3171 99.3359 36.7467 99.6289 37.248C99.9219 37.7428 100.068 38.3646 100.068 39.1133ZM110.908 43H102.822V28.7227H110.908V30.6953H105.166V34.5723H110.547V36.5352H105.166V41.0176H110.908V43ZM124.951 35.2461H130.283V42.4141C129.535 42.6615 128.76 42.8535 127.959 42.9902C127.158 43.127 126.26 43.1953 125.264 43.1953C123.812 43.1953 122.581 42.9089 121.572 42.3359C120.57 41.7565 119.808 40.9199 119.287 39.8262C118.766 38.7259 118.506 37.401 118.506 35.8516C118.506 34.3607 118.796 33.0684 119.375 31.9746C119.954 30.8743 120.798 30.0247 121.904 29.4258C123.011 28.8203 124.352 28.5176 125.928 28.5176C126.702 28.5176 127.451 28.5957 128.174 28.752C128.903 28.9017 129.57 29.11 130.176 29.377L129.355 31.3105C128.874 31.0827 128.333 30.8906 127.734 30.7344C127.135 30.5781 126.514 30.5 125.869 30.5C124.847 30.5 123.965 30.7214 123.223 31.1641C122.487 31.6068 121.921 32.2318 121.523 33.0391C121.126 33.8398 120.928 34.7871 120.928 35.8809C120.928 36.9421 121.087 37.873 121.406 38.6738C121.725 39.4746 122.223 40.0996 122.9 40.5488C123.584 40.9915 124.466 41.2129 125.547 41.2129C126.087 41.2129 126.546 41.1836 126.924 41.125C127.301 41.0664 127.65 41.0013 127.969 40.9297V37.248H124.951V35.2461ZM142.549 43L141.152 39.0352H135.693L134.297 43H131.826L137.139 28.6641H139.736L145.039 43H142.549ZM140.547 37.0234L139.189 33.1172C139.137 32.9479 139.062 32.7103 138.965 32.4043C138.867 32.0918 138.77 31.776 138.672 31.457C138.574 31.1315 138.493 30.8581 138.428 30.6367C138.363 30.9036 138.281 31.2031 138.184 31.5352C138.092 31.8607 138.001 32.1667 137.91 32.4531C137.826 32.7396 137.76 32.9609 137.715 33.1172L136.348 37.0234H140.547ZM153.086 43L148.975 31.0762H148.887C148.906 31.3431 148.929 31.7077 148.955 32.1699C148.981 32.6322 149.004 33.127 149.023 33.6543C149.043 34.1816 149.053 34.6862 149.053 35.168V43H146.924V28.7227H150.215L154.17 40.1191H154.229L158.32 28.7227H161.602V43H159.365V35.0508C159.365 34.6146 159.372 34.1426 159.385 33.6348C159.404 33.127 159.424 32.6452 159.443 32.1895C159.469 31.7337 159.489 31.3691 159.502 31.0957H159.424L155.156 43H153.086ZM173.447 43H165.361V28.7227H173.447V30.6953H167.705V34.5723H173.086V36.5352H167.705V41.0176H173.447V43ZM184.775 39.1133C184.775 39.9596 184.567 40.6888 184.15 41.3008C183.74 41.9128 183.148 42.3815 182.373 42.707C181.605 43.0326 180.687 43.1953 179.619 43.1953C179.098 43.1953 178.6 43.166 178.125 43.1074C177.65 43.0488 177.201 42.9642 176.777 42.8535C176.361 42.7363 175.98 42.5964 175.635 42.4336V40.2266C176.214 40.4805 176.862 40.7116 177.578 40.9199C178.294 41.1217 179.023 41.2227 179.766 41.2227C180.371 41.2227 180.872 41.1445 181.27 40.9883C181.673 40.8255 181.973 40.5977 182.168 40.3047C182.363 40.0052 182.461 39.6569 182.461 39.2598C182.461 38.8366 182.347 38.4785 182.119 38.1855C181.891 37.8926 181.546 37.6257 181.084 37.3848C180.628 37.1374 180.055 36.8737 179.365 36.5938C178.896 36.4049 178.447 36.1901 178.018 35.9492C177.594 35.7083 177.217 35.4251 176.885 35.0996C176.553 34.7741 176.289 34.39 176.094 33.9473C175.905 33.498 175.811 32.9707 175.811 32.3652C175.811 31.5579 176.003 30.8678 176.387 30.2949C176.777 29.722 177.324 29.2826 178.027 28.9766C178.737 28.6706 179.564 28.5176 180.508 28.5176C181.257 28.5176 181.96 28.5957 182.617 28.752C183.281 28.9082 183.932 29.1296 184.57 29.416L183.828 31.3008C183.242 31.0599 182.673 30.8678 182.119 30.7246C181.572 30.5814 181.012 30.5098 180.439 30.5098C179.945 30.5098 179.525 30.5846 179.18 30.7344C178.835 30.8841 178.571 31.0957 178.389 31.3691C178.213 31.6361 178.125 31.9551 178.125 32.3262C178.125 32.7428 178.226 33.0944 178.428 33.3809C178.636 33.6608 178.955 33.918 179.385 34.1523C179.821 34.3867 180.381 34.6471 181.064 34.9336C181.852 35.2591 182.52 35.6009 183.066 35.959C183.62 36.3171 184.043 36.7467 184.336 37.248C184.629 37.7428 184.775 38.3646 184.775 39.1133Z" fill="#AF6CD8"/>
<path d="M197 32H202V37M202 32L196 38L202 32Z" stroke="#AF6CD8" stroke-width="1.5" stroke-linecap="square"/>
<path d="M253.035 43L251.639 39.0352H246.18L244.783 43H242.312L247.625 28.6641H250.223L255.525 43H253.035ZM251.033 37.0234L249.676 33.1172C249.624 32.9479 249.549 32.7103 249.451 32.4043C249.354 32.0918 249.256 31.776 249.158 31.457C249.061 31.1315 248.979 30.8581 248.914 30.6367C248.849 30.9036 248.768 31.2031 248.67 31.5352C248.579 31.8607 248.488 32.1667 248.396 32.4531C248.312 32.7396 248.247 32.9609 248.201 33.1172L246.834 37.0234H251.033ZM257.41 28.7227H261.658C263.501 28.7227 264.891 28.9896 265.828 29.5234C266.766 30.0573 267.234 30.9785 267.234 32.2871C267.234 32.834 267.137 33.3288 266.941 33.7715C266.753 34.2077 266.476 34.569 266.111 34.8555C265.747 35.1354 265.298 35.3242 264.764 35.4219V35.5195C265.317 35.6172 265.809 35.7897 266.238 36.0371C266.674 36.2845 267.016 36.6393 267.264 37.1016C267.518 37.5638 267.645 38.1628 267.645 38.8984C267.645 39.7708 267.436 40.513 267.02 41.125C266.609 41.737 266.02 42.2025 265.252 42.5215C264.49 42.8405 263.585 43 262.537 43H257.41V28.7227ZM259.754 34.6113H262C263.061 34.6113 263.797 34.4388 264.207 34.0938C264.617 33.7487 264.822 33.2441 264.822 32.5801C264.822 31.903 264.578 31.4147 264.09 31.1152C263.608 30.8158 262.84 30.666 261.785 30.666H259.754V34.6113ZM259.754 36.5059V41.0371H262.225C263.318 41.0371 264.087 40.8255 264.529 40.4023C264.972 39.9792 265.193 39.4062 265.193 38.6836C265.193 38.2409 265.092 37.8568 264.891 37.5312C264.695 37.2057 264.373 36.9551 263.924 36.7793C263.475 36.597 262.869 36.5059 262.107 36.5059H259.754ZM283.27 35.8418C283.27 36.9421 283.13 37.9447 282.85 38.8496C282.576 39.748 282.163 40.5228 281.609 41.1738C281.056 41.8184 280.363 42.3164 279.529 42.668C278.696 43.0195 277.719 43.1953 276.6 43.1953C275.46 43.1953 274.471 43.0195 273.631 42.668C272.798 42.3164 272.104 41.8151 271.551 41.1641C271.004 40.513 270.594 39.735 270.32 38.8301C270.047 37.9251 269.91 36.9225 269.91 35.8223C269.91 34.3509 270.151 33.0684 270.633 31.9746C271.121 30.8743 271.86 30.0215 272.85 29.416C273.846 28.804 275.102 28.498 276.619 28.498C278.104 28.498 279.337 28.8008 280.32 29.4062C281.303 30.0117 282.039 30.8646 282.527 31.9648C283.022 33.0586 283.27 34.3509 283.27 35.8418ZM272.371 35.8418C272.371 36.9421 272.521 37.8958 272.82 38.7031C273.12 39.5039 273.579 40.1224 274.197 40.5586C274.822 40.9883 275.623 41.2031 276.6 41.2031C277.583 41.2031 278.383 40.9883 279.002 40.5586C279.62 40.1224 280.076 39.5039 280.369 38.7031C280.662 37.8958 280.809 36.9421 280.809 35.8418C280.809 34.1686 280.473 32.86 279.803 31.916C279.139 30.9655 278.077 30.4902 276.619 30.4902C275.643 30.4902 274.839 30.7051 274.207 31.1348C273.582 31.5645 273.12 32.1797 272.82 32.9805C272.521 33.7747 272.371 34.7285 272.371 35.8418ZM297.547 28.7227V37.9609C297.547 38.957 297.335 39.849 296.912 40.6367C296.495 41.4245 295.864 42.0495 295.018 42.5117C294.171 42.9674 293.107 43.1953 291.824 43.1953C289.995 43.1953 288.602 42.7168 287.645 41.7598C286.694 40.7962 286.219 39.5169 286.219 37.9219V28.7227H288.562V37.7168C288.562 38.9082 288.842 39.7871 289.402 40.3535C289.962 40.9199 290.799 41.2031 291.912 41.2031C292.68 41.2031 293.305 41.0697 293.787 40.8027C294.275 40.5293 294.633 40.1322 294.861 39.6113C295.096 39.084 295.213 38.4492 295.213 37.707V28.7227H297.547ZM306.15 43H303.797V30.7148H299.617V28.7227H310.32V30.7148H306.15V43ZM328.914 28.7227V37.9609C328.914 38.957 328.702 39.849 328.279 40.6367C327.863 41.4245 327.231 42.0495 326.385 42.5117C325.538 42.9674 324.474 43.1953 323.191 43.1953C321.362 43.1953 319.969 42.7168 319.012 41.7598C318.061 40.7962 317.586 39.5169 317.586 37.9219V28.7227H319.93V37.7168C319.93 38.9082 320.21 39.7871 320.77 40.3535C321.329 40.9199 322.166 41.2031 323.279 41.2031C324.048 41.2031 324.673 41.0697 325.154 40.8027C325.643 40.5293 326.001 40.1322 326.229 39.6113C326.463 39.084 326.58 38.4492 326.58 37.707V28.7227H328.914ZM340.809 39.1133C340.809 39.9596 340.6 40.6888 340.184 41.3008C339.773 41.9128 339.181 42.3815 338.406 42.707C337.638 43.0326 336.72 43.1953 335.652 43.1953C335.132 43.1953 334.633 43.166 334.158 43.1074C333.683 43.0488 333.234 42.9642 332.811 42.8535C332.394 42.7363 332.013 42.5964 331.668 42.4336V40.2266C332.247 40.4805 332.895 40.7116 333.611 40.9199C334.327 41.1217 335.057 41.2227 335.799 41.2227C336.404 41.2227 336.906 41.1445 337.303 40.9883C337.706 40.8255 338.006 40.5977 338.201 40.3047C338.396 40.0052 338.494 39.6569 338.494 39.2598C338.494 38.8366 338.38 38.4785 338.152 38.1855C337.924 37.8926 337.579 37.6257 337.117 37.3848C336.661 37.1374 336.089 36.8737 335.398 36.5938C334.93 36.4049 334.48 36.1901 334.051 35.9492C333.628 35.7083 333.25 35.4251 332.918 35.0996C332.586 34.7741 332.322 34.39 332.127 33.9473C331.938 33.498 331.844 32.9707 331.844 32.3652C331.844 31.5579 332.036 30.8678 332.42 30.2949C332.811 29.722 333.357 29.2826 334.061 28.9766C334.77 28.6706 335.597 28.5176 336.541 28.5176C337.29 28.5176 337.993 28.5957 338.65 28.752C339.314 28.9082 339.965 29.1296 340.604 29.416L339.861 31.3008C339.275 31.0599 338.706 30.8678 338.152 30.7246C337.605 30.5814 337.046 30.5098 336.473 30.5098C335.978 30.5098 335.558 30.5846 335.213 30.7344C334.868 30.8841 334.604 31.0957 334.422 31.3691C334.246 31.6361 334.158 31.9551 334.158 32.3262C334.158 32.7428 334.259 33.0944 334.461 33.3809C334.669 33.6608 334.988 33.918 335.418 34.1523C335.854 34.3867 336.414 34.6471 337.098 34.9336C337.885 35.2591 338.553 35.6009 339.1 35.959C339.653 36.3171 340.076 36.7467 340.369 37.248C340.662 37.7428 340.809 38.3646 340.809 39.1133Z" fill="white"/>
<path d="M395.607 43H393.273V36.5547H386.691V43H384.348V28.7227H386.691V34.5625H393.273V28.7227H395.607V43ZM412.062 35.8418C412.062 36.9421 411.923 37.9447 411.643 38.8496C411.369 39.748 410.956 40.5228 410.402 41.1738C409.849 41.8184 409.156 42.3164 408.322 42.668C407.489 43.0195 406.512 43.1953 405.393 43.1953C404.253 43.1953 403.264 43.0195 402.424 42.668C401.59 42.3164 400.897 41.8151 400.344 41.1641C399.797 40.513 399.387 39.735 399.113 38.8301C398.84 37.9251 398.703 36.9225 398.703 35.8223C398.703 34.3509 398.944 33.0684 399.426 31.9746C399.914 30.8743 400.653 30.0215 401.643 29.416C402.639 28.804 403.895 28.498 405.412 28.498C406.896 28.498 408.13 28.8008 409.113 29.4062C410.096 30.0117 410.832 30.8646 411.32 31.9648C411.815 33.0586 412.062 34.3509 412.062 35.8418ZM401.164 35.8418C401.164 36.9421 401.314 37.8958 401.613 38.7031C401.913 39.5039 402.372 40.1224 402.99 40.5586C403.615 40.9883 404.416 41.2031 405.393 41.2031C406.376 41.2031 407.176 40.9883 407.795 40.5586C408.413 40.1224 408.869 39.5039 409.162 38.7031C409.455 37.8958 409.602 36.9421 409.602 35.8418C409.602 34.1686 409.266 32.86 408.596 31.916C407.932 30.9655 406.87 30.4902 405.412 30.4902C404.436 30.4902 403.632 30.7051 403 31.1348C402.375 31.5645 401.913 32.1797 401.613 32.9805C401.314 33.7747 401.164 34.7285 401.164 35.8418ZM432.014 28.7227L428.283 43H425.725L423.342 34.4453C423.283 34.237 423.218 33.9896 423.146 33.7031C423.075 33.4167 423.003 33.1237 422.932 32.8242C422.867 32.5247 422.808 32.2513 422.756 32.0039C422.71 31.75 422.678 31.5547 422.658 31.418C422.645 31.5547 422.616 31.7467 422.57 31.9941C422.525 32.2415 422.469 32.515 422.404 32.8145C422.346 33.1074 422.281 33.4004 422.209 33.6934C422.137 33.9798 422.072 34.2337 422.014 34.4551L419.67 43H417.121L413.4 28.7227H415.754L417.814 37.0918C417.88 37.3587 417.945 37.6484 418.01 37.9609C418.081 38.2669 418.146 38.5762 418.205 38.8887C418.27 39.2012 418.329 39.5072 418.381 39.8066C418.433 40.0996 418.475 40.3665 418.508 40.6074C418.54 40.36 418.583 40.0866 418.635 39.7871C418.687 39.4811 418.742 39.1719 418.801 38.8594C418.866 38.5404 418.931 38.2344 418.996 37.9414C419.068 37.6484 419.139 37.3848 419.211 37.1504L421.535 28.7227H423.82L426.193 37.1797C426.265 37.4206 426.333 37.6908 426.398 37.9902C426.47 38.2897 426.538 38.5957 426.604 38.9082C426.669 39.2207 426.727 39.5234 426.779 39.8164C426.831 40.1094 426.874 40.373 426.906 40.6074C426.952 40.2884 427.01 39.9238 427.082 39.5137C427.154 39.1035 427.235 38.6868 427.326 38.2637C427.417 37.8405 427.508 37.4499 427.6 37.0918L429.65 28.7227H432.014ZM444.182 43H441.828V30.7148H437.648V28.7227H448.352V30.7148H444.182V43ZM463.215 35.8418C463.215 36.9421 463.075 37.9447 462.795 38.8496C462.521 39.748 462.108 40.5228 461.555 41.1738C461.001 41.8184 460.308 42.3164 459.475 42.668C458.641 43.0195 457.665 43.1953 456.545 43.1953C455.406 43.1953 454.416 43.0195 453.576 42.668C452.743 42.3164 452.049 41.8151 451.496 41.1641C450.949 40.513 450.539 39.735 450.266 38.8301C449.992 37.9251 449.855 36.9225 449.855 35.8223C449.855 34.3509 450.096 33.0684 450.578 31.9746C451.066 30.8743 451.805 30.0215 452.795 29.416C453.791 28.804 455.048 28.498 456.564 28.498C458.049 28.498 459.283 28.8008 460.266 29.4062C461.249 30.0117 461.984 30.8646 462.473 31.9648C462.967 33.0586 463.215 34.3509 463.215 35.8418ZM452.316 35.8418C452.316 36.9421 452.466 37.8958 452.766 38.7031C453.065 39.5039 453.524 40.1224 454.143 40.5586C454.768 40.9883 455.568 41.2031 456.545 41.2031C457.528 41.2031 458.329 40.9883 458.947 40.5586C459.566 40.1224 460.021 39.5039 460.314 38.7031C460.607 37.8958 460.754 36.9421 460.754 35.8418C460.754 34.1686 460.419 32.86 459.748 31.916C459.084 30.9655 458.023 30.4902 456.564 30.4902C455.588 30.4902 454.784 30.7051 454.152 31.1348C453.527 31.5645 453.065 32.1797 452.766 32.9805C452.466 33.7747 452.316 34.7285 452.316 35.8418ZM479.719 39.1133C479.719 39.9596 479.51 40.6888 479.094 41.3008C478.684 41.9128 478.091 42.3815 477.316 42.707C476.548 43.0326 475.63 43.1953 474.562 43.1953C474.042 43.1953 473.544 43.166 473.068 43.1074C472.593 43.0488 472.144 42.9642 471.721 42.8535C471.304 42.7363 470.923 42.5964 470.578 42.4336V40.2266C471.158 40.4805 471.805 40.7116 472.521 40.9199C473.238 41.1217 473.967 41.2227 474.709 41.2227C475.314 41.2227 475.816 41.1445 476.213 40.9883C476.617 40.8255 476.916 40.5977 477.111 40.3047C477.307 40.0052 477.404 39.6569 477.404 39.2598C477.404 38.8366 477.29 38.4785 477.062 38.1855C476.835 37.8926 476.49 37.6257 476.027 37.3848C475.572 37.1374 474.999 36.8737 474.309 36.5938C473.84 36.4049 473.391 36.1901 472.961 35.9492C472.538 35.7083 472.16 35.4251 471.828 35.0996C471.496 34.7741 471.232 34.39 471.037 33.9473C470.848 33.498 470.754 32.9707 470.754 32.3652C470.754 31.5579 470.946 30.8678 471.33 30.2949C471.721 29.722 472.268 29.2826 472.971 28.9766C473.68 28.6706 474.507 28.5176 475.451 28.5176C476.2 28.5176 476.903 28.5957 477.561 28.752C478.225 28.9082 478.876 29.1296 479.514 29.416L478.771 31.3008C478.186 31.0599 477.616 30.8678 477.062 30.7246C476.516 30.5814 475.956 30.5098 475.383 30.5098C474.888 30.5098 474.468 30.5846 474.123 30.7344C473.778 30.8841 473.514 31.0957 473.332 31.3691C473.156 31.6361 473.068 31.9551 473.068 32.3262C473.068 32.7428 473.169 33.0944 473.371 33.3809C473.579 33.6608 473.898 33.918 474.328 34.1523C474.764 34.3867 475.324 34.6471 476.008 34.9336C476.796 35.2591 477.463 35.6009 478.01 35.959C478.563 36.3171 478.986 36.7467 479.279 37.248C479.572 37.7428 479.719 38.3646 479.719 39.1133ZM490.559 43H482.473V28.7227H490.559V30.6953H484.816V34.5723H490.197V36.5352H484.816V41.0176H490.559V43ZM493.645 43V28.7227H495.988V41.0078H502.053V43H493.645ZM504.523 43V28.7227H506.867V41.0078H512.932V43H504.523Z" fill="white"/>
<path d="M562.133 30.5098C561.449 30.5098 560.837 30.6335 560.297 30.8809C559.763 31.1283 559.311 31.4863 558.939 31.9551C558.568 32.4173 558.285 32.9805 558.09 33.6445C557.895 34.3021 557.797 35.0443 557.797 35.8711C557.797 36.9779 557.953 37.9316 558.266 38.7324C558.578 39.5267 559.053 40.1387 559.691 40.5684C560.329 40.9915 561.137 41.2031 562.113 41.2031C562.719 41.2031 563.308 41.1445 563.881 41.0273C564.454 40.9102 565.046 40.7507 565.658 40.5488V42.541C565.079 42.7689 564.493 42.9349 563.9 43.0391C563.308 43.1432 562.624 43.1953 561.85 43.1953C560.391 43.1953 559.18 42.8926 558.217 42.2871C557.26 41.6816 556.544 40.8288 556.068 39.7285C555.6 38.6283 555.365 37.3392 555.365 35.8613C555.365 34.7806 555.515 33.791 555.814 32.8926C556.114 31.9941 556.55 31.2194 557.123 30.5684C557.696 29.9108 558.402 29.4062 559.242 29.0547C560.089 28.6966 561.055 28.5176 562.143 28.5176C562.859 28.5176 563.562 28.599 564.252 28.7617C564.949 28.918 565.593 29.1426 566.186 29.4355L565.365 31.3691C564.87 31.1348 564.353 30.9329 563.812 30.7637C563.272 30.5944 562.712 30.5098 562.133 30.5098ZM581.4 35.8418C581.4 36.9421 581.26 37.9447 580.98 38.8496C580.707 39.748 580.294 40.5228 579.74 41.1738C579.187 41.8184 578.493 42.3164 577.66 42.668C576.827 43.0195 575.85 43.1953 574.73 43.1953C573.591 43.1953 572.602 43.0195 571.762 42.668C570.928 42.3164 570.235 41.8151 569.682 41.1641C569.135 40.513 568.725 39.735 568.451 38.8301C568.178 37.9251 568.041 36.9225 568.041 35.8223C568.041 34.3509 568.282 33.0684 568.764 31.9746C569.252 30.8743 569.991 30.0215 570.98 29.416C571.977 28.804 573.233 28.498 574.75 28.498C576.234 28.498 577.468 28.8008 578.451 29.4062C579.434 30.0117 580.17 30.8646 580.658 31.9648C581.153 33.0586 581.4 34.3509 581.4 35.8418ZM570.502 35.8418C570.502 36.9421 570.652 37.8958 570.951 38.7031C571.251 39.5039 571.71 40.1224 572.328 40.5586C572.953 40.9883 573.754 41.2031 574.73 41.2031C575.714 41.2031 576.514 40.9883 577.133 40.5586C577.751 40.1224 578.207 39.5039 578.5 38.7031C578.793 37.8958 578.939 36.9421 578.939 35.8418C578.939 34.1686 578.604 32.86 577.934 31.916C577.27 30.9655 576.208 30.4902 574.75 30.4902C573.773 30.4902 572.969 30.7051 572.338 31.1348C571.713 31.5645 571.251 32.1797 570.951 32.9805C570.652 33.7747 570.502 34.7285 570.502 35.8418ZM596.381 43H593.5L586.508 31.6035H586.42C586.446 31.9876 586.469 32.3945 586.488 32.8242C586.514 33.2539 586.534 33.6966 586.547 34.1523C586.566 34.6081 586.583 35.0703 586.596 35.5391V43H584.467V28.7227H587.328L594.311 40.041H594.379C594.366 39.709 594.35 39.3281 594.33 38.8984C594.311 38.4688 594.291 38.026 594.271 37.5703C594.258 37.1081 594.249 36.6621 594.242 36.2324V28.7227H596.381V43ZM605.082 43H602.729V30.7148H598.549V28.7227H609.252V30.7148H605.082V43ZM620.287 43L618.891 39.0352H613.432L612.035 43H609.564L614.877 28.6641H617.475L622.777 43H620.287ZM618.285 37.0234L616.928 33.1172C616.876 32.9479 616.801 32.7103 616.703 32.4043C616.605 32.0918 616.508 31.776 616.41 31.457C616.312 31.1315 616.231 30.8581 616.166 30.6367C616.101 30.9036 616.02 31.2031 615.922 31.5352C615.831 31.8607 615.74 32.1667 615.648 32.4531C615.564 32.7396 615.499 32.9609 615.453 33.1172L614.086 37.0234H618.285ZM630.746 30.5098C630.062 30.5098 629.451 30.6335 628.91 30.8809C628.376 31.1283 627.924 31.4863 627.553 31.9551C627.182 32.4173 626.898 32.9805 626.703 33.6445C626.508 34.3021 626.41 35.0443 626.41 35.8711C626.41 36.9779 626.566 37.9316 626.879 38.7324C627.191 39.5267 627.667 40.1387 628.305 40.5684C628.943 40.9915 629.75 41.2031 630.727 41.2031C631.332 41.2031 631.921 41.1445 632.494 41.0273C633.067 40.9102 633.66 40.7507 634.271 40.5488V42.541C633.692 42.7689 633.106 42.9349 632.514 43.0391C631.921 43.1432 631.238 43.1953 630.463 43.1953C629.005 43.1953 627.794 42.8926 626.83 42.2871C625.873 41.6816 625.157 40.8288 624.682 39.7285C624.213 38.6283 623.979 37.3392 623.979 35.8613C623.979 34.7806 624.128 33.791 624.428 32.8926C624.727 31.9941 625.163 31.2194 625.736 30.5684C626.309 29.9108 627.016 29.4062 627.855 29.0547C628.702 28.6966 629.669 28.5176 630.756 28.5176C631.472 28.5176 632.175 28.599 632.865 28.7617C633.562 28.918 634.206 29.1426 634.799 29.4355L633.979 31.3691C633.484 31.1348 632.966 30.9329 632.426 30.7637C631.885 30.5944 631.326 30.5098 630.746 30.5098ZM642.289 43H639.936V30.7148H635.756V28.7227H646.459V30.7148H642.289V43ZM665.053 28.7227V37.9609C665.053 38.957 664.841 39.849 664.418 40.6367C664.001 41.4245 663.37 42.0495 662.523 42.5117C661.677 42.9674 660.613 43.1953 659.33 43.1953C657.501 43.1953 656.107 42.7168 655.15 41.7598C654.2 40.7962 653.725 39.5169 653.725 37.9219V28.7227H656.068V37.7168C656.068 38.9082 656.348 39.7871 656.908 40.3535C657.468 40.9199 658.305 41.2031 659.418 41.2031C660.186 41.2031 660.811 41.0697 661.293 40.8027C661.781 40.5293 662.139 40.1322 662.367 39.6113C662.602 39.084 662.719 38.4492 662.719 37.707V28.7227H665.053ZM676.947 39.1133C676.947 39.9596 676.739 40.6888 676.322 41.3008C675.912 41.9128 675.32 42.3815 674.545 42.707C673.777 43.0326 672.859 43.1953 671.791 43.1953C671.27 43.1953 670.772 43.166 670.297 43.1074C669.822 43.0488 669.372 42.9642 668.949 42.8535C668.533 42.7363 668.152 42.5964 667.807 42.4336V40.2266C668.386 40.4805 669.034 40.7116 669.75 40.9199C670.466 41.1217 671.195 41.2227 671.938 41.2227C672.543 41.2227 673.044 41.1445 673.441 40.9883C673.845 40.8255 674.145 40.5977 674.34 40.3047C674.535 40.0052 674.633 39.6569 674.633 39.2598C674.633 38.8366 674.519 38.4785 674.291 38.1855C674.063 37.8926 673.718 37.6257 673.256 37.3848C672.8 37.1374 672.227 36.8737 671.537 36.5938C671.068 36.4049 670.619 36.1901 670.189 35.9492C669.766 35.7083 669.389 35.4251 669.057 35.0996C668.725 34.7741 668.461 34.39 668.266 33.9473C668.077 33.498 667.982 32.9707 667.982 32.3652C667.982 31.5579 668.174 30.8678 668.559 30.2949C668.949 29.722 669.496 29.2826 670.199 28.9766C670.909 28.6706 671.736 28.5176 672.68 28.5176C673.428 28.5176 674.132 28.5957 674.789 28.752C675.453 28.9082 676.104 29.1296 676.742 29.416L676 31.3008C675.414 31.0599 674.844 30.8678 674.291 30.7246C673.744 30.5814 673.184 30.5098 672.611 30.5098C672.117 30.5098 671.697 30.5846 671.352 30.7344C671.007 30.8841 670.743 31.0957 670.561 31.3691C670.385 31.6361 670.297 31.9551 670.297 32.3262C670.297 32.7428 670.398 33.0944 670.6 33.3809C670.808 33.6608 671.127 33.918 671.557 34.1523C671.993 34.3867 672.553 34.6471 673.236 34.9336C674.024 35.2591 674.691 35.6009 675.238 35.959C675.792 36.3171 676.215 36.7467 676.508 37.248C676.801 37.7428 676.947 38.3646 676.947 39.1133Z" fill="white"/>
</svg>
