<svg width="234" height="70" viewBox="0 0 234 70" fill="none" xmlns="http://www.w3.org/2000/svg">
<path d="M27.6367 35.2461H32.9688V42.4141C32.2201 42.6615 31.4453 42.8535 30.6445 42.9902C29.8438 43.127 28.9453 43.1953 27.9492 43.1953C26.4974 43.1953 25.2669 42.9089 24.2578 42.3359C23.2552 41.7565 22.4935 40.9199 21.9727 39.8262C21.4518 38.7259 21.1914 37.401 21.1914 35.8516C21.1914 34.3607 21.4811 33.0684 22.0605 31.9746C22.64 30.8743 23.4831 30.0247 24.5898 29.4258C25.6966 28.8203 27.0378 28.5176 28.6133 28.5176C29.388 28.5176 30.1367 28.5957 30.8594 28.752C31.5885 28.9017 32.2559 29.11 32.8613 29.377L32.041 31.3105C31.5592 31.0827 31.0189 30.8906 30.4199 30.7344C29.821 30.5781 29.1992 30.5 28.5547 30.5C27.5326 30.5 26.6504 30.7214 25.9082 31.1641C25.1725 31.6068 24.6061 32.2318 24.209 33.0391C23.8118 33.8398 23.6133 34.7871 23.6133 35.8809C23.6133 36.9421 23.7728 37.873 24.0918 38.6738C24.4108 39.4746 24.9089 40.0996 25.5859 40.5488C26.2695 40.9915 27.1517 41.2129 28.2324 41.2129C28.7728 41.2129 29.2318 41.1836 29.6094 41.125C29.987 41.0664 30.3353 41.0013 30.6543 40.9297V37.248H27.6367V35.2461ZM36.3867 28.7227H40.6348C42.4772 28.7227 43.8672 28.9896 44.8047 29.5234C45.7422 30.0573 46.2109 30.9785 46.2109 32.2871C46.2109 32.834 46.1133 33.3288 45.918 33.7715C45.7292 34.2077 45.4525 34.569 45.0879 34.8555C44.7233 35.1354 44.2741 35.3242 43.7402 35.4219V35.5195C44.2936 35.6172 44.7852 35.7897 45.2148 36.0371C45.651 36.2845 45.9928 36.6393 46.2402 37.1016C46.4941 37.5638 46.6211 38.1628 46.6211 38.8984C46.6211 39.7708 46.4128 40.513 45.9961 41.125C45.5859 41.737 44.9967 42.2025 44.2285 42.5215C43.4668 42.8405 42.5618 43 41.5137 43H36.3867V28.7227ZM38.7305 34.6113H40.9766C42.0378 34.6113 42.7734 34.4388 43.1836 34.0938C43.5938 33.7487 43.7988 33.2441 43.7988 32.5801C43.7988 31.903 43.5547 31.4147 43.0664 31.1152C42.5846 30.8158 41.8164 30.666 40.7617 30.666H38.7305V34.6113ZM38.7305 36.5059V41.0371H41.2012C42.2949 41.0371 43.0632 40.8255 43.5059 40.4023C43.9486 39.9792 44.1699 39.4062 44.1699 38.6836C44.1699 38.2409 44.069 37.8568 43.8672 37.5312C43.6719 37.2057 43.3496 36.9551 42.9004 36.7793C42.4512 36.597 41.8457 36.5059 41.084 36.5059H38.7305ZM53.7207 28.7227C55.5632 28.7227 56.9076 29.1003 57.7539 29.8555C58.6003 30.6107 59.0234 31.6686 59.0234 33.0293C59.0234 33.6478 58.9258 34.237 58.7305 34.7969C58.5417 35.3503 58.2292 35.8418 57.793 36.2715C57.3568 36.6947 56.7806 37.0299 56.0645 37.2773C55.3548 37.5247 54.4792 37.6484 53.4375 37.6484H51.9141V43H49.5703V28.7227H53.7207ZM53.5645 30.666H51.9141V35.6953H53.1934C53.929 35.6953 54.554 35.6107 55.0684 35.4414C55.5827 35.2656 55.9733 34.9889 56.2402 34.6113C56.5072 34.2337 56.6406 33.7357 56.6406 33.1172C56.6406 32.2904 56.39 31.6751 55.8887 31.2715C55.3939 30.8678 54.6191 30.666 53.5645 30.666Z" fill="white"/>
<path d="M78 32L74 36L70 32" stroke="white" stroke-width="2" stroke-linecap="round" stroke-linejoin="round"/>
<g clip-path="url(#clip0_843_557)">
<path d="M133 35C135.21 35 137 33.21 137 31C137 28.79 135.21 27 133 27C130.79 27 129 28.79 129 31C129 33.21 130.79 35 133 35ZM133 37C130.33 37 125 38.34 125 41V43H141V41C141 38.34 135.67 37 133 37Z" fill="white"/>
</g>
<path d="M198.5 42C198.203 42 197.913 42.088 197.667 42.2528C197.42 42.4176 197.228 42.6519 197.114 42.926C197.001 43.2001 196.971 43.5017 197.029 43.7926C197.087 44.0836 197.23 44.3509 197.439 44.5607C197.649 44.7704 197.916 44.9133 198.207 44.9712C198.498 45.0291 198.8 44.9993 199.074 44.8858C199.348 44.7723 199.582 44.58 199.747 44.3334C199.912 44.0867 200 43.7967 200 43.5C200 43.1022 199.842 42.7206 199.561 42.4393C199.279 42.158 198.898 42 198.5 42ZM209 39H197C196.735 39 196.48 38.8946 196.293 38.7071C196.105 38.5196 196 38.2652 196 38C196 37.7348 196.105 37.4804 196.293 37.2929C196.48 37.1054 196.735 37 197 37H205.491C206.143 36.9979 206.776 36.7847 207.296 36.3925C207.816 36.0002 208.195 35.45 208.376 34.8242L209.961 29.2749C210.004 29.1261 210.011 28.9694 209.983 28.8172C209.955 28.665 209.892 28.5215 209.798 28.3979C209.705 28.2743 209.585 28.1741 209.446 28.105C209.307 28.036 209.155 28 209 28H196.739C196.532 27.4174 196.15 26.9127 195.646 26.5548C195.142 26.1969 194.54 26.0032 193.921 26H193C192.735 26 192.48 26.1054 192.293 26.2929C192.105 26.4804 192 26.7348 192 27C192 27.2652 192.105 27.5196 192.293 27.7071C192.48 27.8946 192.735 28 193 28H193.921C194.138 28.0008 194.349 28.0718 194.523 28.2025C194.696 28.3332 194.822 28.5166 194.883 28.7251L195.038 29.2698L195.039 29.2749L196.679 35.0171C195.916 35.0992 195.213 35.4709 194.715 36.0557C194.218 36.6405 193.963 37.3938 194.004 38.1606C194.045 38.9273 194.379 39.6491 194.936 40.1773C195.494 40.7055 196.232 41 197 41H209C209.265 41 209.52 40.8946 209.707 40.7071C209.895 40.5196 210 40.2652 210 40C210 39.7348 209.895 39.4804 209.707 39.2929C209.52 39.1054 209.265 39 209 39ZM207.674 30L206.453 34.2744C206.393 34.4831 206.266 34.6666 206.093 34.7974C205.92 34.9282 205.708 34.9993 205.491 35H198.754L198.499 34.1078L197.326 30H207.674ZM206.5 42C206.203 42 205.913 42.088 205.667 42.2528C205.42 42.4176 205.228 42.6519 205.114 42.926C205.001 43.2001 204.971 43.5017 205.029 43.7926C205.087 44.0836 205.23 44.3509 205.439 44.5607C205.649 44.7704 205.916 44.9133 206.207 44.9712C206.498 45.0291 206.8 44.9993 207.074 44.8858C207.348 44.7723 207.582 44.58 207.747 44.3334C207.912 44.0867 208 43.7967 208 43.5C208 43.1022 207.842 42.7206 207.561 42.4393C207.279 42.158 206.898 42 206.5 42Z" fill="white"/>
<defs>
<clipPath id="clip0_843_557">
<rect width="24" height="24" fill="white" transform="translate(121 23)"/>
</clipPath>
</defs>
</svg>
