<svg width="282" height="32" viewBox="0 0 282 32" fill="none" xmlns="http://www.w3.org/2000/svg">
<path d="M36.7229 12.2906L28.6486 26.7708L28.6932 31.6422H36.8121L36.7229 12.2906ZM0.5 31.6422H8.66353V27.3071L0.5 12.6929V31.6422ZM29.4516 0.35791L18.7453 18.4134L7.77134 0.35791H0.5L8.66353 15.5084L16.6486 28.5585H20.5743L28.604 15.0615L36.4999 0.35791H29.4516Z" fill="#993CD2"/>
<path d="M81.9734 12.2906L73.8991 26.7708L73.9437 31.6422H82.0626L81.9734 12.2906ZM45.7505 31.6422H53.914V27.3071L45.7505 12.6929V31.6422ZM74.702 0.35791L63.9958 18.4134L53.0218 0.35791H45.7505L53.914 15.5084L61.8991 28.5585H65.8248L73.8545 15.0615L81.7504 0.35791H74.702Z" fill="#993CD2"/>
<path fill-rule="evenodd" clip-rule="evenodd" d="M104.409 31.6422C113.047 31.6422 120.051 24.639 120.051 16.0001C120.051 7.36114 113.047 0.35791 104.409 0.35791C95.7696 0.35791 88.7664 7.36114 88.7664 16.0001C88.7664 24.639 95.7696 31.6422 104.409 31.6422ZM98.673 14.9572C100.977 14.9572 102.844 13.0897 102.844 10.786C102.844 8.48227 100.977 6.61474 98.673 6.61474C96.3693 6.61474 94.5018 8.48227 94.5018 10.786C94.5018 13.0897 96.3693 14.9572 98.673 14.9572ZM114.191 13.7041L112.937 14.9573L105.848 7.86802L107.101 6.61481L110.019 9.53283L112.937 6.61481L114.191 7.86802L111.273 10.786L114.191 13.7041ZM105.848 13.7041L107.764 11.7879L109.017 13.0411L107.101 14.9573L105.848 13.7041ZM102.844 24.6536L101.591 25.9068L94.5016 18.8175L95.7549 17.5643L98.6729 20.4823L101.591 17.5643L102.844 18.8175L99.9261 21.7355L102.844 24.6536ZM94.5016 24.6536L96.4178 22.7374L97.671 23.9906L95.7549 25.9068L94.5016 24.6536ZM114.315 21.7355C114.315 24.0392 112.448 25.9068 110.144 25.9068C107.84 25.9068 105.973 24.0392 105.973 21.7355C105.973 19.4318 107.84 17.5643 110.144 17.5643C112.448 17.5643 114.315 19.4318 114.315 21.7355Z" fill="white"/>
<path fill-rule="evenodd" clip-rule="evenodd" d="M123.403 29.4076C127.043 29.4076 130.312 27.8267 132.564 25.3105L134.229 26.8008C131.571 29.7706 127.705 31.6422 123.403 31.6422C119.383 31.6422 115.743 30.0078 113.114 27.3701L114.697 25.7927C116.924 28.0269 120.001 29.4076 123.403 29.4076Z" fill="url(#paint0_linear_843_520)"/>
<path d="M148.671 15.3555V23.6063C147.195 24.2938 145.676 24.5946 144.027 24.5946C142.335 24.5946 140.859 24.2509 139.557 23.5203C138.255 22.7898 137.214 21.7584 136.519 20.4692C135.781 19.1801 135.434 17.676 135.434 16.0001C135.434 13.4217 136.215 11.316 137.821 9.76898C139.383 8.22196 141.51 7.40547 144.114 7.40547C146.978 7.40547 149.409 8.52277 151.492 10.7574L156.96 5.85845C155.441 4.09655 153.575 2.72142 151.318 1.77602C149.061 0.830612 146.501 0.35791 143.68 0.35791C140.425 0.35791 137.517 1.04548 134.957 2.37764C132.353 3.7098 130.357 5.55764 128.924 7.92115C127.449 10.3276 126.754 12.992 126.754 16.0001C126.754 19.0082 127.449 21.7155 128.924 24.079C130.357 26.4855 132.353 28.3333 134.913 29.6654C137.431 30.9976 140.295 31.6422 143.506 31.6422C145.763 31.6422 148.02 31.3414 150.277 30.6538C152.533 30.0092 154.53 29.0638 156.266 27.8176V15.3555H148.671Z" fill="#993CD2"/>
<path d="M178.15 0.35791V31.6422H202.172V24.6256H187.091V0.35791H178.15Z" fill="#993CD2"/>
<path d="M208.317 0.35791V31.6422H217.255V0.35791H208.317Z" fill="#993CD2"/>
<path d="M225.635 31.6422H234.417V20.9162H249.098V14.0783H225.635V31.6422ZM225.635 0.35791V7.19576H249.098V0.35791H225.635Z" fill="#993CD2"/>
<path d="M281.5 0.35791H256.919V7.19576H281.5V0.35791ZM281.5 12.4694H256.919V19.0838H281.5V12.4694ZM256.919 24.8044V31.6422H281.5V24.8044H256.919Z" fill="#993CD2"/>
<defs>
<linearGradient id="paint0_linear_843_520" x1="131.782" y1="27.173" x2="114.744" y2="27.4523" gradientUnits="userSpaceOnUse">
<stop stop-color="#993CD2"/>
<stop offset="1" stop-color="white"/>
</linearGradient>
</defs>
</svg>
